<mxfile host="Electron" agent="Mozilla/5.0 (Macintosh; Intel Mac OS X 10_15_7) AppleWebKit/537.36 (KHTML, like Gecko) draw.io/26.1.1 Chrome/132.0.6834.210 Electron/34.3.3 Safari/537.36" version="26.1.1">
  <diagram name="Page-1" id="zaHWJ8LTdjroq4gJZbKX">
    <mxGraphModel dx="1114" dy="878" grid="1" gridSize="10" guides="1" tooltips="1" connect="1" arrows="1" fold="1" page="1" pageScale="1" pageWidth="827" pageHeight="1169" math="0" shadow="0">
      <root>
        <mxCell id="0" />
        <mxCell id="1" parent="0" />
        <mxCell id="1tjnFUoKXLa7ZwsJB4gB-1" value="Computer" style="rounded=1;whiteSpace=wrap;html=1;fontStyle=1;verticalAlign=top;" vertex="1" parent="1">
          <mxGeometry x="143" y="90" width="376" height="410" as="geometry" />
        </mxCell>
        <mxCell id="1tjnFUoKXLa7ZwsJB4gB-2" value="CPU" style="rounded=0;whiteSpace=wrap;html=1;verticalAlign=top;" vertex="1" parent="1">
          <mxGeometry x="166" y="155" width="150" height="115" as="geometry" />
        </mxCell>
        <mxCell id="1tjnFUoKXLa7ZwsJB4gB-3" value="&lt;div&gt;&lt;span&gt;count = 1000&lt;/span&gt;&lt;/div&gt;&lt;div&gt;&lt;br&gt;&lt;/div&gt;Main Memory" style="rounded=0;whiteSpace=wrap;html=1;fontStyle=1" vertex="1" parent="1">
          <mxGeometry x="166" y="405" width="330" height="60" as="geometry" />
        </mxCell>
        <mxCell id="1tjnFUoKXLa7ZwsJB4gB-4" value="CPU Cache Memory&lt;div&gt;&lt;br&gt;&lt;/div&gt;&lt;div&gt;&lt;br&gt;&lt;/div&gt;" style="rounded=0;whiteSpace=wrap;html=1;fontStyle=0" vertex="1" parent="1">
          <mxGeometry x="176" y="310" width="130" height="60" as="geometry" />
        </mxCell>
        <mxCell id="1tjnFUoKXLa7ZwsJB4gB-5" value="Thread&lt;div&gt;&lt;br&gt;&lt;/div&gt;&lt;div&gt;&lt;span&gt;count += 1&lt;/span&gt;&lt;/div&gt;" style="rounded=0;whiteSpace=wrap;html=1;fontStyle=1" vertex="1" parent="1">
          <mxGeometry x="176" y="190" width="130" height="60" as="geometry" />
        </mxCell>
        <mxCell id="1tjnFUoKXLa7ZwsJB4gB-6" value="CPU" style="rounded=0;whiteSpace=wrap;html=1;verticalAlign=top;" vertex="1" parent="1">
          <mxGeometry x="346" y="155" width="150" height="115" as="geometry" />
        </mxCell>
        <mxCell id="1tjnFUoKXLa7ZwsJB4gB-7" value="CPU Cache Memory&lt;div&gt;&lt;br&gt;&lt;/div&gt;&lt;div&gt;&lt;br&gt;&lt;/div&gt;" style="rounded=0;whiteSpace=wrap;html=1;" vertex="1" parent="1">
          <mxGeometry x="356" y="310" width="130" height="60" as="geometry" />
        </mxCell>
        <mxCell id="1tjnFUoKXLa7ZwsJB4gB-8" value="Thread&lt;div&gt;&lt;br&gt;&lt;/div&gt;&lt;div&gt;count += 1&lt;/div&gt;" style="rounded=0;whiteSpace=wrap;html=1;fontStyle=1" vertex="1" parent="1">
          <mxGeometry x="356" y="190" width="130" height="60" as="geometry" />
        </mxCell>
        <mxCell id="1tjnFUoKXLa7ZwsJB4gB-9" value="" style="rounded=1;whiteSpace=wrap;html=1;strokeColor=#FF3333;fillColor=none;" vertex="1" parent="1">
          <mxGeometry x="280" y="410" width="100" height="20" as="geometry" />
        </mxCell>
        <mxCell id="1tjnFUoKXLa7ZwsJB4gB-10" value="" style="rounded=1;whiteSpace=wrap;html=1;strokeColor=#FF3333;fillColor=none;" vertex="1" parent="1">
          <mxGeometry x="193" y="225" width="100" height="20" as="geometry" />
        </mxCell>
        <mxCell id="1tjnFUoKXLa7ZwsJB4gB-11" value="" style="endArrow=block;html=1;rounded=0;exitX=0.09;exitY=-0.05;exitDx=0;exitDy=0;exitPerimeter=0;entryX=0.75;entryY=1;entryDx=0;entryDy=0;endFill=1;strokeColor=#FF3333;" edge="1" parent="1">
          <mxGeometry width="50" height="50" relative="1" as="geometry">
            <mxPoint x="289" y="410" as="sourcePoint" />
            <mxPoint x="268" y="246" as="targetPoint" />
          </mxGeometry>
        </mxCell>
        <mxCell id="1tjnFUoKXLa7ZwsJB4gB-23" value="" style="endArrow=block;html=1;rounded=0;exitX=0.09;exitY=-0.05;exitDx=0;exitDy=0;exitPerimeter=0;endFill=1;strokeColor=#FF3333;entryX=0.16;entryY=0.9;entryDx=0;entryDy=0;entryPerimeter=0;" edge="1" parent="1" target="1tjnFUoKXLa7ZwsJB4gB-24">
          <mxGeometry width="50" height="50" relative="1" as="geometry">
            <mxPoint x="367" y="409" as="sourcePoint" />
            <mxPoint x="377" y="250" as="targetPoint" />
          </mxGeometry>
        </mxCell>
        <mxCell id="1tjnFUoKXLa7ZwsJB4gB-24" value="" style="rounded=1;whiteSpace=wrap;html=1;strokeColor=#FF3333;fillColor=none;" vertex="1" parent="1">
          <mxGeometry x="372" y="224" width="100" height="20" as="geometry" />
        </mxCell>
      </root>
    </mxGraphModel>
  </diagram>
</mxfile>
